<svg width="682" height="217" viewBox="0 0 682 217" fill="none" xmlns="http://www.w3.org/2000/svg">
<path d="M211.991 37.5684C216.722 41.8561 222.391 44 229 44C235.609 44 241.243 41.8561 245.904 37.5684C250.635 33.2127 253 28.0062 253 21.949C253 15.9598 250.635 10.8213 245.904 6.53365C241.243 2.17788 235.609 0 229 0C222.391 0 216.722 2.17788 211.991 6.53365C207.33 10.8213 205 15.9598 205 21.949C205 28.0062 207.33 33.2127 211.991 37.5684Z" fill="#9B7EBD"/>
<path d="M205 216V57H249V216H205Z" fill="black"/>
<path d="M0 215H47.7889L63.436 166.658H139.594L155.211 215H203L158.062 83.981L119.331 103.931L128.292 131.67H74.7608L100.728 51.4453H102.375L116.307 94.5706L154.88 74.7019L130.287 3H72.8163L0 215Z" fill="black"/>
<path d="M309.924 123.689V215H266V57.0565H307.862V84.9229H309.718C313.223 75.7369 319.1 68.4704 327.349 63.1234C335.597 57.7078 345.599 55 357.353 55C368.351 55 377.94 57.3993 386.12 62.1979C394.3 66.9966 400.658 73.8517 405.195 82.7635C409.732 91.6067 412 102.164 412 114.434V215H368.076V122.249C368.145 112.584 365.67 105.043 360.653 99.6273C355.635 94.1431 348.726 91.401 339.928 91.401C334.016 91.401 328.792 92.6692 324.256 95.2057C319.788 97.7421 316.282 101.444 313.739 106.311C311.264 111.11 309.992 116.902 309.924 123.689Z" fill="black"/>
<path d="M529.921 147.694V57H574V214.943H531.68V186.255H530.024C526.437 195.509 520.47 202.947 512.123 208.568C503.845 214.189 493.74 217 481.806 217C471.183 217 461.836 214.601 453.765 209.802C445.694 205.003 439.382 198.183 434.829 189.339C430.345 180.496 428.069 169.905 428 157.566V57H472.079V149.751C472.148 159.074 474.666 166.443 479.633 171.859C484.6 177.274 491.256 179.982 499.603 179.982C504.915 179.982 509.881 178.782 514.503 176.383C519.125 173.915 522.85 170.282 525.678 165.483C528.576 160.685 529.99 154.755 529.921 147.694Z" fill="black"/>
<path d="M586 217V59.2593H628.541V86.7818H630.189C633.073 76.9914 637.914 69.5973 644.712 64.5995C651.511 59.5332 659.339 57 668.197 57C670.395 57 672.764 57.1369 675.305 57.4108C677.846 57.6846 680.077 58.0612 682 58.5404V97.3594C679.94 96.7433 677.09 96.1955 673.451 95.7163C669.811 95.2371 666.481 94.9974 663.459 94.9974C657.004 94.9974 651.236 96.4009 646.154 99.208C641.142 101.947 637.159 105.78 634.206 110.71C631.322 115.639 629.88 121.322 629.88 127.757V217H586Z" fill="black"/>
</svg>
